<svg xmlns="http://www.w3.org/2000/svg" width="300" height="300" fill="none"><mask id="f" width="148.217" height="106.471" x="76.512" y="119.769" maskUnits="userSpaceOnUse"><g filter="url(#a)"><path fill="url(#b)" d="M224.729 152.132c0 40.929-33.18 74.109-74.109 74.109-40.929 0-74.108-33.18-74.108-74.109 0-40.928 27.527-31.401 68.456-31.401s79.761-9.527 79.761 31.401Z"/></g></mask><defs><linearGradient id="d" x1="150.62" x2="150.62" y1="78.024" y2="226.241" gradientUnits="userSpaceOnUse"><stop offset="0" stop-color="#FFE500"/><stop offset="1" stop-color="#FF7A00"/></linearGradient><linearGradient id="e" x1="150.62" x2="150.62" y1="78.024" y2="226.241" gradientUnits="userSpaceOnUse"><stop offset="0" stop-color="#FFF"/><stop offset="1" stop-color="#FFF" stop-opacity="0"/></linearGradient><linearGradient id="b" x1="150.62" x2="150.62" y1="78.024" y2="226.241" gradientUnits="userSpaceOnUse"><stop offset="0" stop-color="#FFD600"/><stop offset="1" stop-color="#FF7A00"/></linearGradient><filter id="c" width="353.241" height="353.241" x="-26" y="-27" color-interpolation-filters="sRGB" filterUnits="userSpaceOnUse"><feFlood flood-opacity="0" result="BackgroundImageFix"/><feBlend in="SourceGraphic" in2="BackgroundImageFix" result="shape"/><feGaussianBlur result="effect_layerBlur_1" stdDeviation="33.333"/></filter><filter id="a"><feColorMatrix values="0 0 0 0 1 0 0 0 0 1 0 0 0 0 1 0 0 0 1 0"/></filter><filter id="g" width="326.945" height="136.023" x="-49.278" y="219.777" color-interpolation-filters="sRGB" filterUnits="userSpaceOnUse"><feFlood flood-opacity="0" result="BackgroundImageFix"/><feBlend in="SourceGraphic" in2="BackgroundImageFix" result="shape"/><feGaussianBlur result="effect_layerBlur_1" stdDeviation="4.667"/></filter></defs><path d="M0 0h300v300H0z"/><g filter="url(#c)"><circle cx="150.62" cy="149.62" r="76.62" fill="#FFC701" fill-opacity=".35"/></g><circle cx="150.62" cy="152.132" r="74.108" fill="url(#d)"/><circle cx="150.62" cy="152.132" r="73.108" stroke="url(#e)" stroke-width="2"/><g filter="url(#g)" mask="url(#f)"><path fill="#E18700" fill-rule="evenodd" d="M19.361 341.799h189.667v-.003c.209.002.418.003.628.003 29.829 0 54.011-24.181 54.011-54.011 0-29.829-24.182-54.011-54.011-54.011-.21 0-.419.001-.628.004v-.004h-62.176l-57.15 18.841-18.292 23.19c-5.45-24.064-26.965-42.03-52.677-42.03-29.83 0-54.011 24.181-54.011 54.011 0 29.829 24.181 54.011 54.01 54.011.211 0 .422-.001.631-.004l-.002.003Z"/></g></svg>